<svg width="15" height="15" viewBox="0 0 15 15" fill="none" xmlns="http://www.w3.org/2000/svg">
<path d="M7.5 0C3.36449 0 0 3.36449 0 7.5C0 11.6355 3.36449 15 7.5 15C11.6353 15 14.9995 11.6355 14.9995 7.5C14.9995 3.36449 11.6353 0 7.5 0ZM11.2071 4.27244L8.83181 8.68605C8.79927 8.74653 8.74968 8.79637 8.68895 8.82903L4.27559 11.2039C4.22309 11.2321 4.16599 11.2458 4.10914 11.2458C4.01806 11.2458 3.92806 11.2106 3.86044 11.1428C3.7506 11.0331 3.72581 10.8642 3.79935 10.7276L6.17411 6.31431C6.20678 6.25371 6.25649 6.20387 6.31709 6.17133L10.7309 3.79633C10.8676 3.72266 11.0363 3.74758 11.1462 3.8573C11.2558 3.96713 11.2808 4.13575 11.2071 4.27244Z" fill="#969696"/>
</svg>
