<svg width="12" height="16" viewBox="0 0 12 16" fill="none" xmlns="http://www.w3.org/2000/svg">
<path d="M6.00034 0C3.05959 0 0.666992 2.39259 0.666992 5.33334C0.666992 6.21616 0.887711 7.09147 1.3073 7.86784L5.70868 15.8281C5.76727 15.9342 5.87893 16 6.00034 16C6.12174 16 6.2334 15.9342 6.29199 15.8281L10.695 7.86522C11.113 7.09147 11.3337 6.21613 11.3337 5.33331C11.3337 2.39259 8.94109 0 6.00034 0ZM6.00034 8C4.52996 8 3.33368 6.80372 3.33368 5.33334C3.33368 3.86297 4.52996 2.66669 6.00034 2.66669C7.47071 2.66669 8.66699 3.86297 8.66699 5.33334C8.66699 6.80372 7.47071 8 6.00034 8Z" fill="#969696"/>
</svg>
