<svg width="15" height="15" viewBox="0 0 15 15" fill="none" xmlns="http://www.w3.org/2000/svg">
<path d="M14.8595 6.03059C14.2962 3.08189 11.9183 0.704036 8.96964 0.140775C3.69483 -0.866774 -0.867018 3.69507 0.140531 8.96989C0.703822 11.9186 3.08167 14.2964 6.03035 14.8597C11.3052 15.8672 15.867 11.3054 14.8595 6.03059ZM10.9753 10.9756C10.7922 11.1587 10.5524 11.2502 10.3125 11.2502C10.0726 11.2502 9.83276 11.1587 9.64965 10.9756L6.83715 8.16308C6.66137 7.9873 6.56249 7.74926 6.56249 7.50024V3.75024C6.56249 3.23203 6.98226 2.81274 7.49999 2.81274C8.01773 2.81274 8.43749 3.23206 8.43749 3.75024V7.11205L10.9753 9.6499C11.3415 10.0161 11.3415 10.6094 10.9753 10.9756Z" fill="#969696"/>
</svg>
